<svg width="310" height="461" viewBox="0 0 310 461" fill="none" xmlns="http://www.w3.org/2000/svg">
<path d="M6.00003 212L6.49021 211.901L6.00003 212ZM309.5 459L305.404 454.931L303.928 460.513L309.5 459ZM146.903 0.00955001C146.583 0.0729508 146.262 0.137732 145.939 0.203898L146.14 1.18352C146.461 1.11778 146.78 1.05343 147.097 0.99045L146.903 0.00955001ZM143.985 0.617573C143.328 0.761037 142.666 0.91009 141.997 1.06478L142.223 2.03901C142.887 1.88526 143.546 1.73712 144.199 1.59455L143.985 0.617573ZM140.043 1.52948C139.401 1.68629 138.754 1.84819 138.103 2.01521L138.351 2.98388C138.999 2.81781 139.642 2.65685 140.281 2.50096L140.043 1.52948ZM136.135 2.53169C135.492 2.70428 134.846 2.88177 134.195 3.06418L134.465 4.02704C135.112 3.84562 135.755 3.66911 136.394 3.49747L136.135 2.53169ZM132.273 3.61425C131.629 3.80235 130.981 3.99521 130.33 4.19287L130.621 5.14975C131.268 4.95312 131.913 4.76127 132.553 4.57416L132.273 3.61425ZM128.397 4.79072C127.767 4.98928 127.134 5.19228 126.498 5.39974L126.808 6.35043C127.441 6.14402 128.071 5.94205 128.698 5.7445L128.397 4.79072ZM124.582 6.03556C123.942 6.2517 123.298 6.47232 122.653 6.69745L122.982 7.64167C123.625 7.41764 124.264 7.19812 124.902 6.98306L124.582 6.03556ZM120.778 7.3617C120.151 7.58734 119.522 7.8172 118.89 8.05131L119.238 8.98891C119.866 8.75593 120.493 8.52719 121.117 8.30266L120.778 7.3617ZM116.991 8.76644C116.367 9.0046 115.742 9.24688 115.115 9.49331L115.481 10.424C116.105 10.1787 116.727 9.93759 117.348 9.70058L116.991 8.76644ZM113.257 10.2344C112.635 10.4855 112.013 10.7407 111.389 10.9999L111.773 11.9234C112.394 11.6654 113.013 11.4114 113.631 11.1615L113.257 10.2344ZM109.513 11.7898C108.904 12.0497 108.294 12.3134 107.683 12.581L108.085 13.497C108.693 13.2306 109.3 12.9682 109.906 12.7095L109.513 11.7898ZM105.848 13.3955C105.235 13.6709 104.621 13.9503 104.006 14.2336L104.425 15.1417C105.037 14.8598 105.647 14.5818 106.257 14.3076L105.848 13.3955ZM102.175 15.0883C101.574 15.3722 100.973 15.6598 100.371 15.9512L100.806 16.8512C101.406 16.5612 102.004 16.275 102.602 15.9924L102.175 15.0883ZM98.5634 16.8368C97.9605 17.1358 97.3572 17.4386 96.7535 17.7452L97.2064 18.6368C97.8072 18.3316 98.4077 18.0303 99.0077 17.7327L98.5634 16.8368ZM94.9633 18.6654C94.3724 18.9727 93.7813 19.2837 93.19 19.5984L93.6599 20.4811C94.2483 20.1679 94.8366 19.8584 95.4247 19.5526L94.9633 18.6654ZM91.4161 20.5536C90.8247 20.8757 90.2334 21.2015 89.6421 21.5311L90.1289 22.4046C90.7174 22.0766 91.3059 21.7523 91.8944 21.4318L91.4161 20.5536ZM87.8922 22.5176C87.3127 22.848 86.7334 23.182 86.1543 23.5197L86.6581 24.3836C87.2343 24.0475 87.8108 23.7151 88.3875 23.3863L87.8922 22.5176ZM84.4181 24.5436C83.8397 24.8885 83.2617 25.2371 82.6841 25.5894L83.2048 26.4431C83.7795 26.0926 84.3547 25.7457 84.9303 25.4025L84.4181 24.5436ZM80.9753 26.6433C80.4087 26.9966 79.8426 27.3535 79.2772 27.7139L79.8148 28.5571C80.3774 28.1985 80.9406 27.8434 81.5044 27.4918L80.9753 26.6433ZM77.583 28.806C77.0189 29.1736 76.4556 29.5448 75.8931 29.9197L76.4476 30.7518C77.0073 30.3789 77.5678 30.0096 78.129 29.6438L77.583 28.806ZM74.2273 31.0419C73.6752 31.418 73.1239 31.7976 72.5735 32.1807L73.1449 33.0014C73.6924 32.6202 74.2409 32.2426 74.7903 31.8684L74.2273 31.0419ZM70.9255 33.3408C70.3772 33.731 69.83 34.1248 69.2838 34.5221L69.8722 35.3308C70.4155 34.9355 70.9599 34.5437 71.5054 34.1555L70.9255 33.3408ZM67.6643 35.7135C67.1281 36.1123 66.5931 36.5146 66.0593 36.9203L66.6645 37.7164C67.1954 37.3128 67.7276 36.9126 68.261 36.5159L67.6643 35.7135ZM64.462 38.1482C63.9308 38.5609 63.4011 38.9772 62.8727 39.3971L63.4949 40.18C64.0204 39.7624 64.5473 39.3483 65.0756 38.9377L64.462 38.1482ZM61.3032 40.6582C60.7846 41.0795 60.2674 41.5044 59.7518 41.9327L60.3908 42.7019C60.9036 42.2759 61.418 41.8534 61.9338 41.4343L61.3032 40.6582ZM58.2098 43.228C57.6974 43.6632 57.1866 44.102 56.6776 44.5442L57.3335 45.2991C57.8397 44.8593 58.3476 44.423 58.8572 43.9901L58.2098 43.228ZM55.1625 45.8755C54.6631 46.3192 54.1655 46.7665 53.6697 47.2171L54.3423 47.9571C54.8353 47.509 55.3302 47.0643 55.8268 46.623L55.1625 45.8755ZM52.1878 48.5794C51.6958 49.037 51.2056 49.498 50.7175 49.9625L51.4068 50.687C51.8922 50.2251 52.3795 49.7667 52.8688 49.3117L52.1878 48.5794ZM49.2614 51.3642C48.783 51.83 48.3066 52.2993 47.8323 52.772L48.5383 53.4803C49.0098 53.0104 49.4834 52.5438 49.9591 52.0806L49.2614 51.3642ZM46.4158 54.2004C45.9458 54.68 45.478 55.163 45.0123 55.6495L45.7347 56.3409C46.1976 55.8573 46.6627 55.3772 47.13 54.9004L46.4158 54.2004ZM43.6223 57.1192C43.1659 57.6075 42.7118 58.0992 42.2601 58.5944L42.9988 59.2684C43.4478 58.7762 43.8992 58.2874 44.3529 57.8019L43.6223 57.1192ZM40.9142 60.0874C40.468 60.5884 40.0242 61.0929 39.5828 61.6008L40.3376 62.2567C40.7763 61.7519 41.2175 61.2505 41.661 60.7524L40.9142 60.0874ZM38.2663 63.1348C37.8328 63.6462 37.4018 64.161 36.9734 64.6793L37.7441 65.3164C38.1699 64.8014 38.5982 64.2897 39.0291 63.7814L38.2663 63.1348ZM35.7036 66.2347C35.283 66.7565 34.8649 67.2818 34.4496 67.8104L35.2359 68.4282C35.6487 67.9029 36.0641 67.3809 36.4822 66.8623L35.7036 66.2347ZM33.2117 69.4064C32.8026 69.9408 32.3962 70.4787 31.9926 71.0199L32.7943 71.6177C33.1953 71.0799 33.5992 70.5454 34.0058 70.0143L33.2117 69.4064ZM30.8043 72.6348C30.411 73.1764 30.0205 73.7213 29.6329 74.2696L30.4495 74.8469C30.8346 74.302 31.2226 73.7605 31.6135 73.2224L30.8043 72.6348ZM28.4789 75.9246C28.0971 76.4796 27.7183 77.0379 27.3426 77.5997L28.1737 78.1557C28.5471 77.5975 28.9235 77.0427 29.3028 76.4913L28.4789 75.9246ZM26.2356 79.2778C25.8713 79.8378 25.5101 80.4012 25.1519 80.9678L25.9971 81.5021C26.353 80.9392 26.712 80.3795 27.0739 79.823L26.2356 79.2778ZM24.0865 82.6776C23.7345 83.2508 23.3856 83.8274 23.0399 84.4072L23.8988 84.9193C24.2423 84.3432 24.5889 83.7704 24.9386 83.2009L24.0865 82.6776ZM22.0153 86.1518C21.6816 86.7286 21.351 87.3087 21.0237 87.892L21.8958 88.3813C22.221 87.8019 22.5494 87.2256 22.8809 86.6525L22.0153 86.1518ZM20.0514 89.6515C19.7306 90.2412 19.413 90.8343 19.0987 91.4305L19.9834 91.8968C20.2956 91.3044 20.6111 90.7153 20.9298 90.1294L20.0514 89.6515ZM18.166 93.2291C17.8618 93.8253 17.5609 94.4247 17.2634 95.0274L18.1601 95.4701C18.4556 94.8714 18.7545 94.2759 19.0567 93.6835L18.166 93.2291ZM16.3879 96.8306C16.0994 97.4348 15.8143 98.0422 15.5326 98.6528L16.4407 99.0717C16.7205 98.4651 17.0037 97.8617 17.2903 97.2614L16.3879 96.8306ZM14.698 100.494C14.4233 101.111 14.1521 101.731 13.8844 102.354L14.8032 102.749C15.0692 102.13 15.3386 101.514 15.6115 100.901L14.698 100.494ZM13.1069 104.198C12.8518 104.814 12.6 105.434 12.3518 106.056L13.2807 106.427C13.5273 105.808 13.7774 105.193 14.0309 104.58L13.1069 104.198ZM11.6178 107.933C11.3766 108.562 11.1391 109.193 10.9051 109.828L11.8434 110.174C12.0759 109.543 12.3119 108.916 12.5514 108.291L11.6178 107.933ZM10.2162 111.736C9.9949 112.362 9.77709 112.991 9.56283 113.623L10.5098 113.944C10.7227 113.316 10.9391 112.692 11.159 112.07L10.2162 111.736ZM8.93074 115.527C8.72362 116.165 8.5201 116.806 8.32023 117.449L9.27526 117.746C9.47385 117.106 9.67606 116.47 9.88184 115.836L8.93074 115.527ZM7.73162 119.39C7.5403 120.035 7.35262 120.684 7.16865 121.336L8.13103 121.607C8.31383 120.96 8.50031 120.315 8.69041 119.674L7.73162 119.39ZM6.63874 123.259C6.46568 123.903 6.29622 124.55 6.13041 125.199L7.09935 125.447C7.26412 124.801 7.43251 124.158 7.60448 123.518L6.63874 123.259ZM5.64393 127.157C5.48545 127.813 5.33065 128.471 5.17959 129.132L6.15447 129.355C6.30459 128.698 6.45843 128.044 6.61592 127.392L5.64393 127.157ZM4.74027 131.112C4.60092 131.76 4.46512 132.41 4.33293 133.062L5.31303 133.261C5.44441 132.612 5.57938 131.966 5.71787 131.323L4.74027 131.112ZM3.94719 135.029C3.82224 135.687 3.70094 136.348 3.58332 137.012L4.56798 137.186C4.68489 136.526 4.80546 135.869 4.92965 135.215L3.94719 135.029ZM3.24156 139.011C3.13145 139.679 3.02506 140.351 2.92243 141.025L3.91104 141.175C4.01306 140.505 4.11882 139.838 4.22827 139.173L3.24156 139.011ZM2.63491 142.991C2.54262 143.649 2.4539 144.31 2.36878 144.973L3.36065 145.1C3.44527 144.441 3.53347 143.784 3.62522 143.13L2.63491 142.991ZM2.12428 146.97C2.04641 147.639 1.97219 148.31 1.90164 148.983L2.8962 149.088C2.96634 148.418 3.04014 147.751 3.11756 147.086L2.12428 146.97ZM1.70109 151.012C1.63943 151.675 1.58133 152.34 1.5268 153.008L2.52349 153.089C2.57771 152.425 2.63549 151.764 2.69679 151.105L1.70109 151.012ZM1.37568 154.995C1.32882 155.66 1.28549 156.327 1.24573 156.996L2.24397 157.056C2.28351 156.39 2.3266 155.726 2.3732 155.065L1.37568 154.995ZM1.13716 159.013C1.10455 159.687 1.07554 160.364 1.05017 161.044L2.04947 161.081C2.07471 160.405 2.10356 159.732 2.13599 159.061L1.13716 159.013ZM0.985222 163.08C0.967795 163.739 0.95376 164.4 0.943147 165.063L1.94302 165.079C1.95358 164.419 1.96754 163.762 1.98487 163.107L0.985222 163.08ZM0.921608 167.059C0.917871 167.726 0.917587 168.396 0.920786 169.069L1.92077 169.064C1.91759 168.395 1.91787 167.729 1.92159 167.064L0.921608 167.059ZM0.940862 171.092C0.951057 171.769 0.964765 172.449 0.982017 173.13L1.9817 173.105C1.96453 172.427 1.95089 171.751 1.94075 171.077L0.940862 171.092ZM1.04339 175.152C1.06667 175.811 1.09325 176.471 1.12315 177.134L2.12213 177.089C2.09238 176.429 2.06593 175.772 2.04276 175.117L1.04339 175.152ZM1.22282 179.129C1.25937 179.796 1.29927 180.465 1.34255 181.136L2.34048 181.072C2.29741 180.404 2.2577 179.738 2.22132 179.074L1.22282 179.129ZM1.4825 183.156C1.53254 183.832 1.58598 184.51 1.64284 185.19L2.63937 185.106C2.58277 184.43 2.52958 183.755 2.47977 183.083L1.4825 183.156ZM1.82093 187.206C1.88186 187.861 1.94596 188.518 2.01324 189.177L3.00807 189.076C2.94109 188.42 2.87729 187.766 2.81663 187.113L1.82093 187.206ZM2.22467 191.161C2.29835 191.824 2.37524 192.489 2.45536 193.156L3.44823 193.037C3.36846 192.373 3.29191 191.711 3.21856 191.05L2.22467 191.161ZM2.70546 195.163C2.79207 195.835 2.88194 196.508 2.97509 197.183L3.96571 197.046C3.87296 196.374 3.78347 195.704 3.69723 195.035L2.70546 195.163ZM3.26351 199.208C3.3588 199.857 3.45711 200.508 3.55846 201.161L4.54662 201.007C4.44569 200.357 4.34779 199.709 4.2529 199.063L3.26351 199.208ZM3.87163 203.124C3.97907 203.781 4.08958 204.439 4.20315 205.099L5.18867 204.929C5.07555 204.272 4.9655 203.616 4.8585 202.963L3.87163 203.124ZM4.55315 207.085C4.6729 207.749 4.79576 208.414 4.92173 209.082L5.90439 208.896C5.77891 208.231 5.65654 207.568 5.53726 206.907L4.55315 207.085ZM5.30903 211.09C5.37518 211.426 5.44212 211.762 5.50984 212.099L6.49021 211.901C6.42275 211.566 6.35607 211.231 6.29017 210.897L5.30903 211.09ZM5.50984 212.099C5.57634 212.429 5.6437 212.76 5.71192 213.089L6.69121 212.887C6.62335 212.559 6.55635 212.23 6.49021 211.901L5.50984 212.099ZM6.13147 215.065C6.27473 215.723 6.4214 216.379 6.57144 217.034L7.54617 216.81C7.39693 216.159 7.25104 215.506 7.10853 214.853L6.13147 215.065ZM7.03166 218.994C7.18843 219.646 7.34855 220.297 7.512 220.947L8.48177 220.703C8.31919 220.057 8.15991 219.409 8.00397 218.76L7.03166 218.994ZM8.01227 222.892C8.18234 223.539 8.3557 224.185 8.53234 224.829L9.49677 224.565C9.32106 223.924 9.1486 223.281 8.97942 222.638L8.01227 222.892ZM9.07538 226.77C9.25994 227.417 9.44781 228.062 9.63894 228.706L10.5976 228.422C10.4075 227.781 10.2206 227.139 10.037 226.496L9.07538 226.77ZM10.2221 230.635C10.4198 231.276 10.6206 231.916 10.8247 232.555L11.7773 232.251C11.5742 231.615 11.3744 230.978 11.1778 230.34L10.2221 230.635ZM11.4467 234.467C11.6572 235.104 11.8708 235.738 12.0877 236.372L13.0338 236.048C12.8181 235.418 12.6055 234.786 12.396 234.153L11.4467 234.467ZM12.7481 238.27C12.9721 238.903 13.1993 239.535 13.4296 240.166L14.369 239.823C14.1398 239.195 13.9138 238.567 13.6909 237.937L12.7481 238.27ZM14.1299 242.054C14.3664 242.682 14.6061 243.309 14.8488 243.934L15.781 243.573C15.5395 242.95 15.3011 242.327 15.0657 241.702L14.1299 242.054ZM15.5861 245.807C15.835 246.429 16.0869 247.051 16.3418 247.671L17.2667 247.291C17.013 246.674 16.7624 246.055 16.5148 245.436L15.5861 245.807ZM17.1156 249.527C17.3767 250.145 17.6407 250.762 17.9078 251.377L18.8251 250.978C18.5593 250.366 18.2966 249.753 18.0368 249.138L17.1156 249.527ZM18.718 253.219C18.9911 253.831 19.267 254.443 19.5459 255.053L20.4554 254.637C20.1778 254.03 19.9031 253.421 19.6314 252.812L18.718 253.219ZM20.3914 256.879C20.6761 257.486 20.9637 258.092 21.2542 258.697L22.1556 258.264C21.8665 257.662 21.5802 257.059 21.2968 256.454L20.3914 256.879ZM22.1342 260.507C22.4304 261.109 22.7294 261.71 23.0313 262.309L23.9244 261.859C23.624 261.263 23.3263 260.665 23.0315 260.065L22.1342 260.507ZM23.9437 264.1C24.2506 264.696 24.5603 265.29 24.8727 265.883L25.7575 265.417C25.4464 264.827 25.1382 264.235 24.8327 263.642L23.9437 264.1ZM25.8182 267.659C26.1361 268.249 26.4567 268.838 26.78 269.426L27.6562 268.944C27.3343 268.359 27.0152 267.772 26.6987 267.185L25.8182 267.659ZM27.758 271.186C28.0867 271.771 28.418 272.355 28.752 272.937L29.6196 272.44C29.287 271.86 28.9571 271.278 28.6299 270.696L27.758 271.186ZM29.7607 274.679C30.0987 275.256 30.4394 275.833 30.7825 276.408L31.6413 275.896C31.2996 275.323 30.9604 274.749 30.6239 274.174L29.7607 274.679ZM31.8198 278.13C32.1681 278.702 32.5189 279.274 32.8723 279.843L33.7222 279.317C33.3703 278.749 33.0209 278.18 32.6741 277.61L31.8198 278.13ZM33.9398 281.549C34.2982 282.117 34.6591 282.683 35.0224 283.247L35.8634 282.706C35.5015 282.144 35.1422 281.58 34.7853 281.015L33.9398 281.549ZM36.1197 284.938C36.4867 285.498 36.8561 286.057 37.2279 286.614L38.0599 286.06C37.6896 285.504 37.3217 284.948 36.9562 284.39L36.1197 284.938ZM38.3488 288.281C38.7247 288.835 39.1031 289.388 39.4837 289.939L40.3067 289.371C39.9276 288.822 39.5507 288.271 39.1763 287.719L38.3488 288.281ZM40.6327 291.59C41.018 292.139 41.4057 292.686 41.7956 293.233L42.6095 292.652C42.2211 292.108 41.835 291.562 41.4512 291.015L40.6327 291.59ZM42.9721 294.868C43.3665 295.412 43.7632 295.954 44.1621 296.495L44.9671 295.902C44.5697 295.363 44.1745 294.823 43.7815 294.281L42.9721 294.868ZM45.3588 298.106C45.7599 298.641 46.1631 299.176 46.5685 299.709L47.3644 299.103C46.9605 298.572 46.5588 298.04 46.1592 297.507L45.3588 298.106ZM47.7911 301.304C48.2008 301.834 48.6126 302.363 49.0265 302.891L49.8134 302.274C49.401 301.748 48.9907 301.221 48.5825 300.693L47.7911 301.304ZM50.2745 304.471C50.6926 304.996 51.1127 305.52 51.535 306.043L52.3129 305.415C51.8922 304.894 51.4735 304.372 51.0569 303.848L50.2745 304.471ZM52.8056 307.605C53.2294 308.122 53.6551 308.638 54.0829 309.152L54.8519 308.513C54.4256 308 54.0013 307.486 53.5791 306.971L52.8056 307.605ZM55.372 310.692C55.8036 311.204 56.2372 311.715 56.6728 312.224L57.4329 311.574C56.9988 311.067 56.5667 310.558 56.1365 310.047L55.372 310.692ZM57.9851 313.749C58.4245 314.256 58.8657 314.762 59.3089 315.266L60.0602 314.606C59.6185 314.103 59.1787 313.599 58.7408 313.094L57.9851 313.749ZM60.6439 316.775C61.0894 317.276 61.5368 317.775 61.986 318.273L62.7284 317.603C62.2807 317.107 61.8348 316.609 61.3908 316.111L60.6439 316.775ZM63.3351 319.758C63.7866 320.252 64.2399 320.745 64.6949 321.237L65.4287 320.557C64.9751 320.067 64.5233 319.576 64.0732 319.084L63.3351 319.758ZM66.0653 322.707C66.5238 323.196 66.984 323.684 67.446 324.17L68.1711 323.482C67.7106 322.997 67.2518 322.511 66.7947 322.023L66.0653 322.707ZM68.837 325.626C69.3023 326.11 69.7693 326.593 70.238 327.074L70.9546 326.377C70.4873 325.897 70.0217 325.415 69.5578 324.933L68.837 325.626ZM71.6435 328.509C72.113 328.986 72.5841 329.461 73.0567 329.935L73.7648 329.229C73.2936 328.756 72.8239 328.282 72.3559 327.807L71.6435 328.509ZM74.4795 331.353C74.9553 331.825 75.4327 332.295 75.9116 332.764L76.6113 332.049C76.1337 331.582 75.6577 331.113 75.1833 330.643L74.4795 331.353ZM77.3529 334.167C77.8349 334.634 78.3184 335.099 78.8034 335.563L79.4947 334.84C79.0111 334.378 78.529 333.914 78.0484 333.449L77.3529 334.167ZM80.2628 336.952C80.7488 337.411 81.2363 337.87 81.7252 338.327L82.4083 337.597C81.9207 337.141 81.4346 336.684 80.95 336.225L80.2628 336.952ZM83.1954 339.695C83.6869 340.149 84.1798 340.603 84.6741 341.055L85.349 340.317C84.8561 339.866 84.3646 339.414 83.8744 338.961L83.1954 339.695ZM86.161 342.408C86.658 342.857 87.1564 343.306 87.6562 343.753L88.3231 343.008C87.8247 342.562 87.3276 342.115 86.832 341.666L86.161 342.408ZM89.1593 345.091C89.6616 345.536 90.1652 345.98 90.6701 346.422L91.3291 345.67C90.8255 345.229 90.3232 344.786 89.8222 344.343L89.1593 345.091ZM92.1837 347.741C92.6895 348.179 93.1966 348.617 93.7048 349.053L94.3559 348.294C93.849 347.859 93.3432 347.423 92.8387 346.985L92.1837 347.741ZM95.2334 350.357C95.7441 350.791 96.256 351.223 96.7691 351.654L97.4124 350.888C96.9006 350.458 96.39 350.027 95.8805 349.595L95.2334 350.357ZM98.312 352.944C98.8274 353.373 99.344 353.8 99.8618 354.226L100.497 353.454C99.9809 353.029 99.4656 352.603 98.9514 352.175L98.312 352.944ZM101.418 355.501C101.937 355.924 102.457 356.346 102.978 356.767L103.606 355.988C103.086 355.569 102.567 355.148 102.05 354.726L101.418 355.501ZM104.545 358.025C105.068 358.443 105.592 358.86 106.118 359.275L106.738 358.491C106.214 358.077 105.691 357.661 105.169 357.243L104.545 358.025ZM107.697 360.519C108.224 360.932 108.753 361.344 109.282 361.755L109.895 360.965C109.367 360.555 108.84 360.144 108.314 359.732L107.697 360.519ZM110.873 362.984C111.405 363.393 111.937 363.8 112.47 364.206L113.076 363.41C112.544 363.005 112.013 362.599 111.483 362.191L110.873 362.984ZM114.072 365.42C114.607 365.823 115.143 366.225 115.68 366.626L116.278 365.825C115.743 365.425 115.208 365.024 114.674 364.621L114.072 365.42ZM117.292 367.826C117.831 368.224 118.37 368.622 118.911 369.018L119.502 368.212C118.963 367.816 118.425 367.42 117.887 367.022L117.292 367.826ZM120.534 370.203C121.076 370.597 121.618 370.989 122.162 371.381L122.746 370.569C122.204 370.178 121.662 369.787 121.122 369.394L120.534 370.203ZM123.795 372.551C124.341 372.941 124.888 373.329 125.435 373.716L126.012 372.9C125.466 372.513 124.921 372.126 124.376 371.737L123.795 372.551ZM127.079 374.873C127.628 375.258 128.178 375.641 128.728 376.023L129.298 375.202C128.749 374.821 128.201 374.438 127.653 374.054L127.079 374.873ZM130.381 377.166C130.932 377.546 131.485 377.924 132.038 378.302L132.601 377.476C132.049 377.099 131.498 376.721 130.948 376.343L130.381 377.166ZM133.699 379.43C134.254 379.805 134.809 380.18 135.366 380.553L135.923 379.722C135.367 379.35 134.813 378.976 134.259 378.602L133.699 379.43ZM137.039 381.67C137.598 382.041 138.157 382.411 138.717 382.78L139.267 381.945C138.708 381.577 138.15 381.208 137.593 380.837L137.039 381.67ZM140.398 383.883C140.958 384.249 141.52 384.614 142.082 384.978L142.625 384.139C142.065 383.775 141.504 383.411 140.945 383.045L140.398 383.883ZM143.769 386.066C144.332 386.427 144.895 386.788 145.459 387.147L145.996 386.303C145.433 385.945 144.871 385.585 144.309 385.224L143.769 386.066ZM147.157 388.223C147.725 388.582 148.294 388.939 148.862 389.295L149.393 388.447C148.825 388.092 148.258 387.735 147.691 387.378L147.157 388.223ZM150.57 390.359C151.139 390.713 151.709 391.065 152.279 391.416L152.804 390.565C152.234 390.214 151.666 389.863 151.097 389.51L150.57 390.359ZM153.992 392.466C154.563 392.814 155.134 393.162 155.706 393.508L156.224 392.652C155.653 392.307 155.083 391.96 154.513 391.612L153.992 392.466ZM157.422 394.543C157.998 394.888 158.574 395.233 159.15 395.576L159.662 394.717C159.087 394.374 158.512 394.03 157.937 393.685L157.422 394.543ZM160.883 396.603C161.461 396.945 162.039 397.285 162.618 397.624L163.123 396.761C162.546 396.423 161.969 396.083 161.392 395.742L160.883 396.603ZM164.354 398.636C164.933 398.973 165.512 399.308 166.091 399.642L166.59 398.775C166.012 398.442 165.434 398.107 164.856 397.772L164.354 398.636ZM167.83 400.639C168.409 400.97 168.989 401.301 169.569 401.629L170.062 400.759C169.483 400.431 168.904 400.102 168.326 399.771L167.83 400.639ZM171.326 402.621C171.912 402.951 172.498 403.279 173.085 403.606L173.572 402.733C172.987 402.407 172.401 402.079 171.816 401.75L171.326 402.621ZM174.844 404.584C175.43 404.908 176.017 405.231 176.604 405.553L177.085 404.676C176.499 404.355 175.914 404.032 175.328 403.709L174.844 404.584ZM178.363 406.515C178.95 406.834 179.537 407.152 180.123 407.469L180.598 406.589C180.013 406.273 179.427 405.956 178.841 405.637L178.363 406.515ZM181.888 408.419C182.483 408.737 183.077 409.054 183.671 409.37L184.14 408.487C183.547 408.171 182.954 407.855 182.361 407.537L181.888 408.419ZM185.452 410.313C186.046 410.626 186.64 410.937 187.233 411.248L187.697 410.362C187.104 410.052 186.511 409.74 185.919 409.428L185.452 410.313ZM189.014 412.175C189.607 412.483 190.2 412.789 190.794 413.094L191.251 412.205C190.659 411.901 190.067 411.595 189.474 411.287L189.014 412.175ZM192.572 414.006C193.17 414.312 193.768 414.616 194.366 414.918L194.818 414.026C194.221 413.724 193.624 413.42 193.027 413.115L192.572 414.006ZM196.17 415.828C196.771 416.13 197.372 416.431 197.972 416.73L198.418 415.835C197.819 415.536 197.219 415.236 196.619 414.934L196.17 415.828ZM199.773 417.623C200.373 417.92 200.972 418.215 201.572 418.509L202.012 417.611C201.414 417.318 200.815 417.023 200.216 416.727L199.773 417.623ZM203.368 419.386C203.968 419.678 204.567 419.968 205.165 420.257L205.6 419.356C205.002 419.068 204.404 418.778 203.806 418.487L203.368 419.386ZM206.991 421.134C207.599 421.425 208.206 421.714 208.814 422.003L209.242 421.099C208.636 420.811 208.03 420.522 207.422 420.232L206.991 421.134ZM210.634 422.863C211.24 423.148 211.846 423.432 212.451 423.715L212.874 422.809C212.27 422.527 211.665 422.243 211.06 421.958L210.634 422.863ZM214.265 424.558C214.869 424.838 215.472 425.117 216.075 425.394L216.493 424.485C215.891 424.208 215.288 423.93 214.685 423.651L214.265 424.558ZM217.909 426.233C218.524 426.513 219.138 426.791 219.752 427.069L220.163 426.157C219.551 425.881 218.937 425.602 218.323 425.323L217.909 426.233ZM221.59 427.896C222.203 428.17 222.814 428.443 223.425 428.715L223.831 427.801C223.221 427.53 222.611 427.257 221.999 426.983L221.59 427.896ZM225.255 429.525C225.865 429.793 226.473 430.06 227.081 430.326L227.481 429.409C226.874 429.144 226.267 428.878 225.659 428.609L225.255 429.525ZM228.92 431.126C229.542 431.395 230.162 431.663 230.782 431.929L231.177 431.011C230.558 430.745 229.938 430.477 229.318 430.208L228.92 431.126ZM232.639 432.724C233.257 432.987 233.874 433.249 234.49 433.509L234.879 432.587C234.264 432.328 233.648 432.066 233.031 431.804L232.639 432.724ZM236.335 434.284C236.949 434.541 237.563 434.797 238.175 435.051L238.558 434.127C237.947 433.874 237.335 433.619 236.721 433.362L236.335 434.284ZM240.023 435.815C240.651 436.073 241.277 436.329 241.903 436.585L242.28 435.659C241.656 435.404 241.03 435.148 240.403 434.89L240.023 435.815ZM243.776 437.345C244.399 437.597 245.021 437.847 245.642 438.095L246.014 437.167C245.394 436.919 244.773 436.669 244.151 436.418L243.776 437.345ZM247.501 438.836C248.119 439.081 248.736 439.325 249.351 439.567L249.717 438.636C249.103 438.395 248.487 438.151 247.869 437.907L247.501 438.836ZM251.215 440.296C251.849 440.543 252.481 440.788 253.112 441.032L253.472 440.099C252.842 439.856 252.211 439.611 251.578 439.365L251.215 440.296ZM255 441.757C255.627 441.996 256.254 442.235 256.878 442.471L257.232 441.536C256.609 441.3 255.983 441.062 255.357 440.822L255 441.757ZM258.747 443.175C259.369 443.408 259.988 443.639 260.606 443.868L260.954 442.931C260.337 442.702 259.719 442.471 259.098 442.238L258.747 443.175ZM262.498 444.567C263.137 444.802 263.773 445.034 264.408 445.265L264.75 444.326C264.116 444.095 263.481 443.863 262.843 443.628L262.498 444.567ZM266.307 445.952C266.938 446.179 267.567 446.405 268.194 446.628L268.53 445.686C267.904 445.463 267.276 445.238 266.646 445.011L266.307 445.952ZM270.069 447.293C270.694 447.513 271.317 447.731 271.938 447.948L272.267 447.003C271.648 446.787 271.026 446.569 270.402 446.349L270.069 447.293ZM273.871 448.618C274.512 448.839 275.152 449.058 275.789 449.275L276.112 448.329C275.476 448.112 274.837 447.893 274.196 447.672L273.871 448.618ZM277.694 449.921C278.326 450.134 278.956 450.345 279.584 450.554L279.9 449.605C279.273 449.397 278.644 449.186 278.013 448.973L277.694 449.921ZM281.459 451.175C282.106 451.388 282.75 451.599 283.391 451.807L283.7 450.856C283.06 450.648 282.417 450.438 281.772 450.225L281.459 451.175ZM285.328 452.433C285.971 452.639 286.611 452.843 287.248 453.045L287.55 452.091C286.914 451.89 286.275 451.686 285.634 451.481L285.328 452.433ZM289.15 453.643C289.781 453.841 290.409 454.035 291.033 454.228L291.328 453.273C290.705 453.08 290.078 452.886 289.448 452.689L289.15 453.643ZM292.977 454.823C293.631 455.022 294.282 455.219 294.929 455.412L295.216 454.454C294.57 454.261 293.921 454.065 293.268 453.867L292.977 454.823ZM296.859 455.986C297.499 456.175 298.135 456.361 298.767 456.545L299.046 455.585C298.415 455.401 297.78 455.215 297.142 455.027L296.859 455.986ZM300.653 457.088C301.318 457.278 301.978 457.465 302.634 457.65L302.905 456.687C302.25 456.503 301.591 456.316 300.928 456.127L300.653 457.088ZM304.593 458.195C305.242 458.374 305.886 458.55 306.526 458.723L306.787 457.758C306.149 457.585 305.506 457.41 304.859 457.231L304.593 458.195Z" fill="black"/>
</svg>
